<svg aria-roledescription="er" viewBox="0 0 701.1204833984375 964" style="max-width: 701.12px; background-color: white;" xmlns:xlink="http://www.w3.org/1999/xlink" xmlns="http://www.w3.org/2000/svg" width="100%" id="mermaid-0"><style>#mermaid-0{font-family:"trebuchet ms",verdana,arial,sans-serif;font-size:16px;fill:#000000;}#mermaid-0 .error-icon{fill:#552222;}#mermaid-0 .error-text{fill:#552222;stroke:#552222;}#mermaid-0 .edge-thickness-normal{stroke-width:2px;}#mermaid-0 .edge-thickness-thick{stroke-width:3.5px;}#mermaid-0 .edge-pattern-solid{stroke-dasharray:0;}#mermaid-0 .edge-pattern-dashed{stroke-dasharray:3;}#mermaid-0 .edge-pattern-dotted{stroke-dasharray:2;}#mermaid-0 .marker{fill:#000000;stroke:#000000;}#mermaid-0 .marker.cross{stroke:#000000;}#mermaid-0 svg{font-family:"trebuchet ms",verdana,arial,sans-serif;font-size:16px;}#mermaid-0 .entityBox{fill:#cde498;stroke:#13540c;}#mermaid-0 .attributeBoxOdd{fill:#ffffff;stroke:#13540c;}#mermaid-0 .attributeBoxEven{fill:#f2f2f2;stroke:#13540c;}#mermaid-0 .relationshipLabelBox{fill:hsl(78.1578947368, 58.4615384615%, 84.5098039216%);opacity:0.7;background-color:hsl(78.1578947368, 58.4615384615%, 84.5098039216%);}#mermaid-0 .relationshipLabelBox rect{opacity:0.5;}#mermaid-0 .relationshipLine{stroke:#000000;}#mermaid-0 .entityTitleText{text-anchor:middle;font-size:18px;fill:#000000;}#mermaid-0 :root{--mermaid-font-family:"trebuchet ms",verdana,arial,sans-serif;}</style><g/><defs><marker orient="auto" markerHeight="18" markerWidth="18" refY="9" refX="0" id="ONLY_ONE_START"><path d="M9,0 L9,18 M15,0 L15,18" fill="none" stroke="gray"/></marker></defs><defs><marker orient="auto" markerHeight="18" markerWidth="18" refY="9" refX="18" id="ONLY_ONE_END"><path d="M3,0 L3,18 M9,0 L9,18" fill="none" stroke="gray"/></marker></defs><defs><marker orient="auto" markerHeight="18" markerWidth="30" refY="9" refX="0" id="ZERO_OR_ONE_START"><circle r="6" cy="9" cx="21" fill="white" stroke="gray"/><path d="M9,0 L9,18" fill="none" stroke="gray"/></marker></defs><defs><marker orient="auto" markerHeight="18" markerWidth="30" refY="9" refX="30" id="ZERO_OR_ONE_END"><circle r="6" cy="9" cx="9" fill="white" stroke="gray"/><path d="M21,0 L21,18" fill="none" stroke="gray"/></marker></defs><defs><marker orient="auto" markerHeight="36" markerWidth="45" refY="18" refX="18" id="ONE_OR_MORE_START"><path d="M0,18 Q 18,0 36,18 Q 18,36 0,18 M42,9 L42,27" fill="none" stroke="gray"/></marker></defs><defs><marker orient="auto" markerHeight="36" markerWidth="45" refY="18" refX="27" id="ONE_OR_MORE_END"><path d="M3,9 L3,27 M9,18 Q27,0 45,18 Q27,36 9,18" fill="none" stroke="gray"/></marker></defs><defs><marker orient="auto" markerHeight="36" markerWidth="57" refY="18" refX="18" id="ZERO_OR_MORE_START"><circle r="6" cy="18" cx="48" fill="white" stroke="gray"/><path d="M0,18 Q18,0 36,18 Q18,36 0,18" fill="none" stroke="gray"/></marker></defs><defs><marker orient="auto" markerHeight="36" markerWidth="57" refY="18" refX="39" id="ZERO_OR_MORE_END"><circle r="6" cy="18" cx="9" fill="white" stroke="gray"/><path d="M21,18 Q39,0 57,18 Q39,36 21,18" fill="none" stroke="gray"/></marker></defs><path style="stroke: gray; fill: none;" marker-start="url(#ZERO_OR_MORE_START)" marker-end="url(#ONLY_ONE_END)" d="M87.69358825683594,622L87.69358825683594,630.3333333333334C87.69358825683594,638.6666666666666,87.69358825683594,655.3333333333334,135.8629493713379,684.0583058144397C184.03231048583984,712.783278295546,280.37103271484375,753.5665565910919,328.5403938293457,773.9581957388647L376.70975494384766,794.3498348866377" class="er relationshipLine"/><path style="stroke: gray; fill: none;" marker-start="url(#ZERO_OR_MORE_START)" marker-end="url(#ONLY_ONE_END)" d="M147.4897865653038,355L129.19042018055916,372.5C110.89105379581451,390,74.29232102632523,425,59.92377225164347,450.8333333333333C45.55522347696172,476.6666666666667,53.41685869708751,493.3333333333333,57.3476763071504,501.6666666666667L61.2784939172133,510" class="er relationshipLine"/><path style="stroke: gray; fill: none;" marker-start="url(#ZERO_OR_MORE_START)" marker-end="url(#ONLY_ONE_END)" d="M202.66847732663155,355L226.35289739072323,372.5C250.0373174548149,390,297.4061575829983,425,321.09057764708996,460.1666666666667C344.77499771118164,495.3333333333333,344.77499771118164,530.6666666666666,344.77499771118164,566C344.77499771118164,601.3333333333334,344.77499771118164,636.6666666666666,351.1536009889212,662.6666666666666C357.5322042666607,688.6666666666666,370.2894108221397,705.3333333333334,376.66801409987926,713.6666666666666L383.0466173776188,722" class="er relationshipLine"/><path style="stroke: gray; fill: none;" marker-start="url(#ZERO_OR_MORE_START)" marker-end="url(#ONLY_ONE_END)" d="M326.70975494384766,388.43375649572226L307.4128297170003,400.3614637464352C288.115904490153,412.2891709971482,249.52205403645834,436.1445854985741,220.53687288776132,456.40562608262036C191.55169173906435,476.6666666666667,172.175179895365,493.3333333333333,162.48692397351536,501.6666666666667L152.7986680516657,510" class="er relationshipLine"/><path style="stroke: gray; fill: none;" marker-start="url(#ZERO_OR_MORE_START)" marker-end="url(#ONLY_ONE_END)" d="M478.9471130371094,410L485.45752970377606,418.3333333333333C491.9679463704427,426.6666666666667,504.98877970377606,443.3333333333333,511.4991963704427,469.3333333333333C518.0096130371094,495.3333333333333,518.0096130371094,530.6666666666666,518.0096130371094,566C518.0096130371094,601.3333333333334,518.0096130371094,636.6666666666666,515.4216213186829,662.6666666666666C512.8336296002564,688.6666666666666,507.6576461634034,705.3333333333334,505.06965444497695,713.6666666666666L502.4816627265504,722" class="er relationshipLine"/><path style="stroke: gray; fill: none;" marker-start="url(#ZERO_OR_MORE_START)" marker-end="url(#ONLY_ONE_END)" d="M458.8856510912251,154L452.0729780822058,162.33333333333334C445.26030507318654,170.66666666666666,431.63495905514793,187.33333333333334,424.8222860461287,204C418.0096130371094,220.66666666666666,418.0096130371094,237.33333333333334,418.0096130371094,245.66666666666666L418.0096130371094,254" class="er relationshipLine"/><path style="stroke: gray; fill: none;" marker-start="url(#ZERO_OR_MORE_START)" marker-end="url(#ONLY_ONE_END)" d="M593.6155586242676,149.36569290161134L605.2895558675131,158.47141075134277C616.9635531107584,167.57712860107424,640.3115475972494,185.7885643005371,651.9855448404948,216.22761548360188C663.6595420837402,246.66666666666666,663.6595420837402,289.3333333333333,663.6595420837402,332C663.6595420837402,374.6666666666667,663.6595420837402,417.3333333333333,663.6595420837402,456.3333333333333C663.6595420837402,495.3333333333333,663.6595420837402,530.6666666666666,663.6595420837402,566C663.6595420837402,601.3333333333334,663.6595420837402,636.6666666666666,646.2678635915121,668.6449165314104C628.8761850992838,700.6231663961543,594.0928281148275,729.2463327923084,576.7011496225992,743.5579159903855L559.3094711303711,757.8694991884626" class="er relationshipLine"/><g transform="translate(376.70975494384766,722 )" id="entity-User-90ff6812-bc2d-40cf-a594-b27e33d84d8e"><rect height="222" width="182.59971618652344" y="0" x="0" class="er entityBox"/><text style="dominant-baseline: middle; text-anchor: middle; font-size: 12px;" transform="translate(91.29985809326172,12)" y="0" x="0" id="text-entity-User-90ff6812-bc2d-40cf-a594-b27e33d84d8e" class="er entityLabel">User</text><rect height="22" width="54.095550537109375" y="24" x="0" class="er attributeBoxOdd"/><text style="dominant-baseline: middle; font-size: 10.2px;" transform="translate(5,35)" y="0" x="0" id="text-entity-User-90ff6812-bc2d-40cf-a594-b27e33d84d8e-attr-1-type" class="er entityLabel">String</text><rect height="22" width="58.60394287109375" y="24" x="54.095550537109375" class="er attributeBoxOdd"/><text style="dominant-baseline: middle; font-size: 10.2px;" transform="translate(59.095550537109375,35)" y="0" x="0" id="text-entity-User-90ff6812-bc2d-40cf-a594-b27e33d84d8e-attr-1-name" class="er entityLabel">id</text><rect height="22" width="22.68768310546875" y="24" x="112.69949340820312" class="er attributeBoxOdd"/><text style="dominant-baseline: middle; font-size: 10.2px;" transform="translate(117.69949340820312,35)" y="0" x="0" id="text-entity-User-90ff6812-bc2d-40cf-a594-b27e33d84d8e-attr-1-key" class="er entityLabel">PK</text><rect height="22" width="47.21253967285156" y="24" x="135.38717651367188" class="er attributeBoxOdd"/><text style="dominant-baseline: middle; font-size: 10.2px;" transform="translate(140.38717651367188,35)" y="0" x="0" id="text-entity-User-90ff6812-bc2d-40cf-a594-b27e33d84d8e-attr-1-comment" class="er entityLabel"/><rect height="22" width="54.095550537109375" y="46" x="0" class="er attributeBoxEven"/><text style="dominant-baseline: middle; font-size: 10.2px;" transform="translate(5,57)" y="0" x="0" id="text-entity-User-90ff6812-bc2d-40cf-a594-b27e33d84d8e-attr-2-type" class="er entityLabel">String</text><rect height="22" width="58.60394287109375" y="46" x="54.095550537109375" class="er attributeBoxEven"/><text style="dominant-baseline: middle; font-size: 10.2px;" transform="translate(59.095550537109375,57)" y="0" x="0" id="text-entity-User-90ff6812-bc2d-40cf-a594-b27e33d84d8e-attr-2-name" class="er entityLabel">firstname</text><rect height="22" width="22.68768310546875" y="46" x="112.69949340820312" class="er attributeBoxEven"/><text style="dominant-baseline: middle; font-size: 10.2px;" transform="translate(117.69949340820312,57)" y="0" x="0" id="text-entity-User-90ff6812-bc2d-40cf-a594-b27e33d84d8e-attr-2-key" class="er entityLabel"/><rect height="22" width="47.21253967285156" y="46" x="135.38717651367188" class="er attributeBoxEven"/><text style="dominant-baseline: middle; font-size: 10.2px;" transform="translate(140.38717651367188,57)" y="0" x="0" id="text-entity-User-90ff6812-bc2d-40cf-a594-b27e33d84d8e-attr-2-comment" class="er entityLabel">nullable</text><rect height="22" width="54.095550537109375" y="68" x="0" class="er attributeBoxOdd"/><text style="dominant-baseline: middle; font-size: 10.2px;" transform="translate(5,79)" y="0" x="0" id="text-entity-User-90ff6812-bc2d-40cf-a594-b27e33d84d8e-attr-3-type" class="er entityLabel">String</text><rect height="22" width="58.60394287109375" y="68" x="54.095550537109375" class="er attributeBoxOdd"/><text style="dominant-baseline: middle; font-size: 10.2px;" transform="translate(59.095550537109375,79)" y="0" x="0" id="text-entity-User-90ff6812-bc2d-40cf-a594-b27e33d84d8e-attr-3-name" class="er entityLabel">lastname</text><rect height="22" width="22.68768310546875" y="68" x="112.69949340820312" class="er attributeBoxOdd"/><text style="dominant-baseline: middle; font-size: 10.2px;" transform="translate(117.69949340820312,79)" y="0" x="0" id="text-entity-User-90ff6812-bc2d-40cf-a594-b27e33d84d8e-attr-3-key" class="er entityLabel"/><rect height="22" width="47.21253967285156" y="68" x="135.38717651367188" class="er attributeBoxOdd"/><text style="dominant-baseline: middle; font-size: 10.2px;" transform="translate(140.38717651367188,79)" y="0" x="0" id="text-entity-User-90ff6812-bc2d-40cf-a594-b27e33d84d8e-attr-3-comment" class="er entityLabel">nullable</text><rect height="22" width="54.095550537109375" y="90" x="0" class="er attributeBoxEven"/><text style="dominant-baseline: middle; font-size: 10.2px;" transform="translate(5,101)" y="0" x="0" id="text-entity-User-90ff6812-bc2d-40cf-a594-b27e33d84d8e-attr-4-type" class="er entityLabel">String</text><rect height="22" width="58.60394287109375" y="90" x="54.095550537109375" class="er attributeBoxEven"/><text style="dominant-baseline: middle; font-size: 10.2px;" transform="translate(59.095550537109375,101)" y="0" x="0" id="text-entity-User-90ff6812-bc2d-40cf-a594-b27e33d84d8e-attr-4-name" class="er entityLabel">email</text><rect height="22" width="22.68768310546875" y="90" x="112.69949340820312" class="er attributeBoxEven"/><text style="dominant-baseline: middle; font-size: 10.2px;" transform="translate(117.69949340820312,101)" y="0" x="0" id="text-entity-User-90ff6812-bc2d-40cf-a594-b27e33d84d8e-attr-4-key" class="er entityLabel"/><rect height="22" width="47.21253967285156" y="90" x="135.38717651367188" class="er attributeBoxEven"/><text style="dominant-baseline: middle; font-size: 10.2px;" transform="translate(140.38717651367188,101)" y="0" x="0" id="text-entity-User-90ff6812-bc2d-40cf-a594-b27e33d84d8e-attr-4-comment" class="er entityLabel"/><rect height="22" width="54.095550537109375" y="112" x="0" class="er attributeBoxOdd"/><text style="dominant-baseline: middle; font-size: 10.2px;" transform="translate(5,123)" y="0" x="0" id="text-entity-User-90ff6812-bc2d-40cf-a594-b27e33d84d8e-attr-5-type" class="er entityLabel">String</text><rect height="22" width="58.60394287109375" y="112" x="54.095550537109375" class="er attributeBoxOdd"/><text style="dominant-baseline: middle; font-size: 10.2px;" transform="translate(59.095550537109375,123)" y="0" x="0" id="text-entity-User-90ff6812-bc2d-40cf-a594-b27e33d84d8e-attr-5-name" class="er entityLabel">password</text><rect height="22" width="22.68768310546875" y="112" x="112.69949340820312" class="er attributeBoxOdd"/><text style="dominant-baseline: middle; font-size: 10.2px;" transform="translate(117.69949340820312,123)" y="0" x="0" id="text-entity-User-90ff6812-bc2d-40cf-a594-b27e33d84d8e-attr-5-key" class="er entityLabel"/><rect height="22" width="47.21253967285156" y="112" x="135.38717651367188" class="er attributeBoxOdd"/><text style="dominant-baseline: middle; font-size: 10.2px;" transform="translate(140.38717651367188,123)" y="0" x="0" id="text-entity-User-90ff6812-bc2d-40cf-a594-b27e33d84d8e-attr-5-comment" class="er entityLabel">nullable</text><rect height="22" width="54.095550537109375" y="134" x="0" class="er attributeBoxEven"/><text style="dominant-baseline: middle; font-size: 10.2px;" transform="translate(5,145)" y="0" x="0" id="text-entity-User-90ff6812-bc2d-40cf-a594-b27e33d84d8e-attr-6-type" class="er entityLabel">String</text><rect height="22" width="58.60394287109375" y="134" x="54.095550537109375" class="er attributeBoxEven"/><text style="dominant-baseline: middle; font-size: 10.2px;" transform="translate(59.095550537109375,145)" y="0" x="0" id="text-entity-User-90ff6812-bc2d-40cf-a594-b27e33d84d8e-attr-6-name" class="er entityLabel">googleId</text><rect height="22" width="22.68768310546875" y="134" x="112.69949340820312" class="er attributeBoxEven"/><text style="dominant-baseline: middle; font-size: 10.2px;" transform="translate(117.69949340820312,145)" y="0" x="0" id="text-entity-User-90ff6812-bc2d-40cf-a594-b27e33d84d8e-attr-6-key" class="er entityLabel"/><rect height="22" width="47.21253967285156" y="134" x="135.38717651367188" class="er attributeBoxEven"/><text style="dominant-baseline: middle; font-size: 10.2px;" transform="translate(140.38717651367188,145)" y="0" x="0" id="text-entity-User-90ff6812-bc2d-40cf-a594-b27e33d84d8e-attr-6-comment" class="er entityLabel">nullable</text><rect height="22" width="54.095550537109375" y="156" x="0" class="er attributeBoxOdd"/><text style="dominant-baseline: middle; font-size: 10.2px;" transform="translate(5,167)" y="0" x="0" id="text-entity-User-90ff6812-bc2d-40cf-a594-b27e33d84d8e-attr-7-type" class="er entityLabel">String</text><rect height="22" width="58.60394287109375" y="156" x="54.095550537109375" class="er attributeBoxOdd"/><text style="dominant-baseline: middle; font-size: 10.2px;" transform="translate(59.095550537109375,167)" y="0" x="0" id="text-entity-User-90ff6812-bc2d-40cf-a594-b27e33d84d8e-attr-7-name" class="er entityLabel">avatarUrl</text><rect height="22" width="22.68768310546875" y="156" x="112.69949340820312" class="er attributeBoxOdd"/><text style="dominant-baseline: middle; font-size: 10.2px;" transform="translate(117.69949340820312,167)" y="0" x="0" id="text-entity-User-90ff6812-bc2d-40cf-a594-b27e33d84d8e-attr-7-key" class="er entityLabel"/><rect height="22" width="47.21253967285156" y="156" x="135.38717651367188" class="er attributeBoxOdd"/><text style="dominant-baseline: middle; font-size: 10.2px;" transform="translate(140.38717651367188,167)" y="0" x="0" id="text-entity-User-90ff6812-bc2d-40cf-a594-b27e33d84d8e-attr-7-comment" class="er entityLabel">nullable</text><rect height="22" width="54.095550537109375" y="178" x="0" class="er attributeBoxEven"/><text style="dominant-baseline: middle; font-size: 10.2px;" transform="translate(5,189)" y="0" x="0" id="text-entity-User-90ff6812-bc2d-40cf-a594-b27e33d84d8e-attr-8-type" class="er entityLabel">DateTime</text><rect height="22" width="58.60394287109375" y="178" x="54.095550537109375" class="er attributeBoxEven"/><text style="dominant-baseline: middle; font-size: 10.2px;" transform="translate(59.095550537109375,189)" y="0" x="0" id="text-entity-User-90ff6812-bc2d-40cf-a594-b27e33d84d8e-attr-8-name" class="er entityLabel">createdAt</text><rect height="22" width="22.68768310546875" y="178" x="112.69949340820312" class="er attributeBoxEven"/><text style="dominant-baseline: middle; font-size: 10.2px;" transform="translate(117.69949340820312,189)" y="0" x="0" id="text-entity-User-90ff6812-bc2d-40cf-a594-b27e33d84d8e-attr-8-key" class="er entityLabel"/><rect height="22" width="47.21253967285156" y="178" x="135.38717651367188" class="er attributeBoxEven"/><text style="dominant-baseline: middle; font-size: 10.2px;" transform="translate(140.38717651367188,189)" y="0" x="0" id="text-entity-User-90ff6812-bc2d-40cf-a594-b27e33d84d8e-attr-8-comment" class="er entityLabel"/><rect height="22" width="54.095550537109375" y="200" x="0" class="er attributeBoxOdd"/><text style="dominant-baseline: middle; font-size: 10.2px;" transform="translate(5,211)" y="0" x="0" id="text-entity-User-90ff6812-bc2d-40cf-a594-b27e33d84d8e-attr-9-type" class="er entityLabel">DateTime</text><rect height="22" width="58.60394287109375" y="200" x="54.095550537109375" class="er attributeBoxOdd"/><text style="dominant-baseline: middle; font-size: 10.2px;" transform="translate(59.095550537109375,211)" y="0" x="0" id="text-entity-User-90ff6812-bc2d-40cf-a594-b27e33d84d8e-attr-9-name" class="er entityLabel">updatedAt</text><rect height="22" width="22.68768310546875" y="200" x="112.69949340820312" class="er attributeBoxOdd"/><text style="dominant-baseline: middle; font-size: 10.2px;" transform="translate(117.69949340820312,211)" y="0" x="0" id="text-entity-User-90ff6812-bc2d-40cf-a594-b27e33d84d8e-attr-9-key" class="er entityLabel"/><rect height="22" width="47.21253967285156" y="200" x="135.38717651367188" class="er attributeBoxOdd"/><text style="dominant-baseline: middle; font-size: 10.2px;" transform="translate(140.38717651367188,211)" y="0" x="0" id="text-entity-User-90ff6812-bc2d-40cf-a594-b27e33d84d8e-attr-9-comment" class="er entityLabel"/></g><g transform="translate(20,510 )" id="entity-Group-8a3b3da4-9867-484e-b774-1d0b537ca9a1"><rect height="112" width="135.38717651367188" y="0" x="0" class="er entityBox"/><text style="dominant-baseline: middle; text-anchor: middle; font-size: 12px;" transform="translate(67.69358825683594,12)" y="0" x="0" id="text-entity-Group-8a3b3da4-9867-484e-b774-1d0b537ca9a1" class="er entityLabel">Group</text><rect height="22" width="54.095550537109375" y="24" x="0" class="er attributeBoxOdd"/><text style="dominant-baseline: middle; font-size: 10.2px;" transform="translate(5,35)" y="0" x="0" id="text-entity-Group-8a3b3da4-9867-484e-b774-1d0b537ca9a1-attr-1-type" class="er entityLabel">String</text><rect height="22" width="58.60394287109375" y="24" x="54.095550537109375" class="er attributeBoxOdd"/><text style="dominant-baseline: middle; font-size: 10.2px;" transform="translate(59.095550537109375,35)" y="0" x="0" id="text-entity-Group-8a3b3da4-9867-484e-b774-1d0b537ca9a1-attr-1-name" class="er entityLabel">id</text><rect height="22" width="22.68768310546875" y="24" x="112.69949340820312" class="er attributeBoxOdd"/><text style="dominant-baseline: middle; font-size: 10.2px;" transform="translate(117.69949340820312,35)" y="0" x="0" id="text-entity-Group-8a3b3da4-9867-484e-b774-1d0b537ca9a1-attr-1-key" class="er entityLabel">PK</text><rect height="22" width="54.095550537109375" y="46" x="0" class="er attributeBoxEven"/><text style="dominant-baseline: middle; font-size: 10.2px;" transform="translate(5,57)" y="0" x="0" id="text-entity-Group-8a3b3da4-9867-484e-b774-1d0b537ca9a1-attr-2-type" class="er entityLabel">String</text><rect height="22" width="58.60394287109375" y="46" x="54.095550537109375" class="er attributeBoxEven"/><text style="dominant-baseline: middle; font-size: 10.2px;" transform="translate(59.095550537109375,57)" y="0" x="0" id="text-entity-Group-8a3b3da4-9867-484e-b774-1d0b537ca9a1-attr-2-name" class="er entityLabel">title</text><rect height="22" width="22.68768310546875" y="46" x="112.69949340820312" class="er attributeBoxEven"/><text style="dominant-baseline: middle; font-size: 10.2px;" transform="translate(117.69949340820312,57)" y="0" x="0" id="text-entity-Group-8a3b3da4-9867-484e-b774-1d0b537ca9a1-attr-2-key" class="er entityLabel"/><rect height="22" width="54.095550537109375" y="68" x="0" class="er attributeBoxOdd"/><text style="dominant-baseline: middle; font-size: 10.2px;" transform="translate(5,79)" y="0" x="0" id="text-entity-Group-8a3b3da4-9867-484e-b774-1d0b537ca9a1-attr-3-type" class="er entityLabel">DateTime</text><rect height="22" width="58.60394287109375" y="68" x="54.095550537109375" class="er attributeBoxOdd"/><text style="dominant-baseline: middle; font-size: 10.2px;" transform="translate(59.095550537109375,79)" y="0" x="0" id="text-entity-Group-8a3b3da4-9867-484e-b774-1d0b537ca9a1-attr-3-name" class="er entityLabel">createdAt</text><rect height="22" width="22.68768310546875" y="68" x="112.69949340820312" class="er attributeBoxOdd"/><text style="dominant-baseline: middle; font-size: 10.2px;" transform="translate(117.69949340820312,79)" y="0" x="0" id="text-entity-Group-8a3b3da4-9867-484e-b774-1d0b537ca9a1-attr-3-key" class="er entityLabel"/><rect height="22" width="54.095550537109375" y="90" x="0" class="er attributeBoxEven"/><text style="dominant-baseline: middle; font-size: 10.2px;" transform="translate(5,101)" y="0" x="0" id="text-entity-Group-8a3b3da4-9867-484e-b774-1d0b537ca9a1-attr-4-type" class="er entityLabel">DateTime</text><rect height="22" width="58.60394287109375" y="90" x="54.095550537109375" class="er attributeBoxEven"/><text style="dominant-baseline: middle; font-size: 10.2px;" transform="translate(59.095550537109375,101)" y="0" x="0" id="text-entity-Group-8a3b3da4-9867-484e-b774-1d0b537ca9a1-attr-4-name" class="er entityLabel">updatedAt</text><rect height="22" width="22.68768310546875" y="90" x="112.69949340820312" class="er attributeBoxEven"/><text style="dominant-baseline: middle; font-size: 10.2px;" transform="translate(117.69949340820312,101)" y="0" x="0" id="text-entity-Group-8a3b3da4-9867-484e-b774-1d0b537ca9a1-attr-4-key" class="er entityLabel"/></g><g transform="translate(116.37100982666016,309 )" id="entity-Member-06de5e58-2094-403a-ac99-dd000d1ef64a"><rect height="46" width="110.3387451171875" y="0" x="0" class="er entityBox"/><text style="dominant-baseline: middle; text-anchor: middle; font-size: 12px;" transform="translate(55.16937255859375,12)" y="0" x="0" id="text-entity-Member-06de5e58-2094-403a-ac99-dd000d1ef64a" class="er entityLabel">Member</text><rect height="22" width="54.095550537109375" y="24" x="0" class="er attributeBoxOdd"/><text style="dominant-baseline: middle; font-size: 10.2px;" transform="translate(5,35)" y="0" x="0" id="text-entity-Member-06de5e58-2094-403a-ac99-dd000d1ef64a-attr-1-type" class="er entityLabel">DateTime</text><rect height="22" width="56.243194580078125" y="24" x="54.095550537109375" class="er attributeBoxOdd"/><text style="dominant-baseline: middle; font-size: 10.2px;" transform="translate(59.095550537109375,35)" y="0" x="0" id="text-entity-Member-06de5e58-2094-403a-ac99-dd000d1ef64a-attr-1-name" class="er entityLabel">createdAt</text></g><g transform="translate(326.70975494384766,254 )" id="entity-Expense-632ae5d4-a727-412f-a882-6854ca4147d6"><rect height="156" width="182.59971618652344" y="0" x="0" class="er entityBox"/><text style="dominant-baseline: middle; text-anchor: middle; font-size: 12px;" transform="translate(91.29985809326172,12)" y="0" x="0" id="text-entity-Expense-632ae5d4-a727-412f-a882-6854ca4147d6" class="er entityLabel">Expense</text><rect height="22" width="54.095550537109375" y="24" x="0" class="er attributeBoxOdd"/><text style="dominant-baseline: middle; font-size: 10.2px;" transform="translate(5,35)" y="0" x="0" id="text-entity-Expense-632ae5d4-a727-412f-a882-6854ca4147d6-attr-1-type" class="er entityLabel">String</text><rect height="22" width="58.60394287109375" y="24" x="54.095550537109375" class="er attributeBoxOdd"/><text style="dominant-baseline: middle; font-size: 10.2px;" transform="translate(59.095550537109375,35)" y="0" x="0" id="text-entity-Expense-632ae5d4-a727-412f-a882-6854ca4147d6-attr-1-name" class="er entityLabel">id</text><rect height="22" width="22.68768310546875" y="24" x="112.69949340820312" class="er attributeBoxOdd"/><text style="dominant-baseline: middle; font-size: 10.2px;" transform="translate(117.69949340820312,35)" y="0" x="0" id="text-entity-Expense-632ae5d4-a727-412f-a882-6854ca4147d6-attr-1-key" class="er entityLabel">PK</text><rect height="22" width="47.21253967285156" y="24" x="135.38717651367188" class="er attributeBoxOdd"/><text style="dominant-baseline: middle; font-size: 10.2px;" transform="translate(140.38717651367188,35)" y="0" x="0" id="text-entity-Expense-632ae5d4-a727-412f-a882-6854ca4147d6-attr-1-comment" class="er entityLabel"/><rect height="22" width="54.095550537109375" y="46" x="0" class="er attributeBoxEven"/><text style="dominant-baseline: middle; font-size: 10.2px;" transform="translate(5,57)" y="0" x="0" id="text-entity-Expense-632ae5d4-a727-412f-a882-6854ca4147d6-attr-2-type" class="er entityLabel">String</text><rect height="22" width="58.60394287109375" y="46" x="54.095550537109375" class="er attributeBoxEven"/><text style="dominant-baseline: middle; font-size: 10.2px;" transform="translate(59.095550537109375,57)" y="0" x="0" id="text-entity-Expense-632ae5d4-a727-412f-a882-6854ca4147d6-attr-2-name" class="er entityLabel">title</text><rect height="22" width="22.68768310546875" y="46" x="112.69949340820312" class="er attributeBoxEven"/><text style="dominant-baseline: middle; font-size: 10.2px;" transform="translate(117.69949340820312,57)" y="0" x="0" id="text-entity-Expense-632ae5d4-a727-412f-a882-6854ca4147d6-attr-2-key" class="er entityLabel"/><rect height="22" width="47.21253967285156" y="46" x="135.38717651367188" class="er attributeBoxEven"/><text style="dominant-baseline: middle; font-size: 10.2px;" transform="translate(140.38717651367188,57)" y="0" x="0" id="text-entity-Expense-632ae5d4-a727-412f-a882-6854ca4147d6-attr-2-comment" class="er entityLabel"/><rect height="22" width="54.095550537109375" y="68" x="0" class="er attributeBoxOdd"/><text style="dominant-baseline: middle; font-size: 10.2px;" transform="translate(5,79)" y="0" x="0" id="text-entity-Expense-632ae5d4-a727-412f-a882-6854ca4147d6-attr-3-type" class="er entityLabel">Decimal</text><rect height="22" width="58.60394287109375" y="68" x="54.095550537109375" class="er attributeBoxOdd"/><text style="dominant-baseline: middle; font-size: 10.2px;" transform="translate(59.095550537109375,79)" y="0" x="0" id="text-entity-Expense-632ae5d4-a727-412f-a882-6854ca4147d6-attr-3-name" class="er entityLabel">cost</text><rect height="22" width="22.68768310546875" y="68" x="112.69949340820312" class="er attributeBoxOdd"/><text style="dominant-baseline: middle; font-size: 10.2px;" transform="translate(117.69949340820312,79)" y="0" x="0" id="text-entity-Expense-632ae5d4-a727-412f-a882-6854ca4147d6-attr-3-key" class="er entityLabel"/><rect height="22" width="47.21253967285156" y="68" x="135.38717651367188" class="er attributeBoxOdd"/><text style="dominant-baseline: middle; font-size: 10.2px;" transform="translate(140.38717651367188,79)" y="0" x="0" id="text-entity-Expense-632ae5d4-a727-412f-a882-6854ca4147d6-attr-3-comment" class="er entityLabel"/><rect height="22" width="54.095550537109375" y="90" x="0" class="er attributeBoxEven"/><text style="dominant-baseline: middle; font-size: 10.2px;" transform="translate(5,101)" y="0" x="0" id="text-entity-Expense-632ae5d4-a727-412f-a882-6854ca4147d6-attr-4-type" class="er entityLabel">DateTime</text><rect height="22" width="58.60394287109375" y="90" x="54.095550537109375" class="er attributeBoxEven"/><text style="dominant-baseline: middle; font-size: 10.2px;" transform="translate(59.095550537109375,101)" y="0" x="0" id="text-entity-Expense-632ae5d4-a727-412f-a882-6854ca4147d6-attr-4-name" class="er entityLabel">dueDate</text><rect height="22" width="22.68768310546875" y="90" x="112.69949340820312" class="er attributeBoxEven"/><text style="dominant-baseline: middle; font-size: 10.2px;" transform="translate(117.69949340820312,101)" y="0" x="0" id="text-entity-Expense-632ae5d4-a727-412f-a882-6854ca4147d6-attr-4-key" class="er entityLabel"/><rect height="22" width="47.21253967285156" y="90" x="135.38717651367188" class="er attributeBoxEven"/><text style="dominant-baseline: middle; font-size: 10.2px;" transform="translate(140.38717651367188,101)" y="0" x="0" id="text-entity-Expense-632ae5d4-a727-412f-a882-6854ca4147d6-attr-4-comment" class="er entityLabel">nullable</text><rect height="22" width="54.095550537109375" y="112" x="0" class="er attributeBoxOdd"/><text style="dominant-baseline: middle; font-size: 10.2px;" transform="translate(5,123)" y="0" x="0" id="text-entity-Expense-632ae5d4-a727-412f-a882-6854ca4147d6-attr-5-type" class="er entityLabel">DateTime</text><rect height="22" width="58.60394287109375" y="112" x="54.095550537109375" class="er attributeBoxOdd"/><text style="dominant-baseline: middle; font-size: 10.2px;" transform="translate(59.095550537109375,123)" y="0" x="0" id="text-entity-Expense-632ae5d4-a727-412f-a882-6854ca4147d6-attr-5-name" class="er entityLabel">createdAt</text><rect height="22" width="22.68768310546875" y="112" x="112.69949340820312" class="er attributeBoxOdd"/><text style="dominant-baseline: middle; font-size: 10.2px;" transform="translate(117.69949340820312,123)" y="0" x="0" id="text-entity-Expense-632ae5d4-a727-412f-a882-6854ca4147d6-attr-5-key" class="er entityLabel"/><rect height="22" width="47.21253967285156" y="112" x="135.38717651367188" class="er attributeBoxOdd"/><text style="dominant-baseline: middle; font-size: 10.2px;" transform="translate(140.38717651367188,123)" y="0" x="0" id="text-entity-Expense-632ae5d4-a727-412f-a882-6854ca4147d6-attr-5-comment" class="er entityLabel"/><rect height="22" width="54.095550537109375" y="134" x="0" class="er attributeBoxEven"/><text style="dominant-baseline: middle; font-size: 10.2px;" transform="translate(5,145)" y="0" x="0" id="text-entity-Expense-632ae5d4-a727-412f-a882-6854ca4147d6-attr-6-type" class="er entityLabel">DateTime</text><rect height="22" width="58.60394287109375" y="134" x="54.095550537109375" class="er attributeBoxEven"/><text style="dominant-baseline: middle; font-size: 10.2px;" transform="translate(59.095550537109375,145)" y="0" x="0" id="text-entity-Expense-632ae5d4-a727-412f-a882-6854ca4147d6-attr-6-name" class="er entityLabel">updatedAt</text><rect height="22" width="22.68768310546875" y="134" x="112.69949340820312" class="er attributeBoxEven"/><text style="dominant-baseline: middle; font-size: 10.2px;" transform="translate(117.69949340820312,145)" y="0" x="0" id="text-entity-Expense-632ae5d4-a727-412f-a882-6854ca4147d6-attr-6-key" class="er entityLabel"/><rect height="22" width="47.21253967285156" y="134" x="135.38717651367188" class="er attributeBoxEven"/><text style="dominant-baseline: middle; font-size: 10.2px;" transform="translate(140.38717651367188,145)" y="0" x="0" id="text-entity-Expense-632ae5d4-a727-412f-a882-6854ca4147d6-attr-6-comment" class="er entityLabel"/></g><g transform="translate(433.7035255432129,20 )" id="entity-Paying-53a10f37-0537-42bd-8b74-677aff74b8e4"><rect height="134" width="159.9120330810547" y="0" x="0" class="er entityBox"/><text style="dominant-baseline: middle; text-anchor: middle; font-size: 12px;" transform="translate(79.95601654052734,12)" y="0" x="0" id="text-entity-Paying-53a10f37-0537-42bd-8b74-677aff74b8e4" class="er entityLabel">Paying</text><rect height="22" width="54.095550537109375" y="24" x="0" class="er attributeBoxOdd"/><text style="dominant-baseline: middle; font-size: 10.2px;" transform="translate(5,35)" y="0" x="0" id="text-entity-Paying-53a10f37-0537-42bd-8b74-677aff74b8e4-attr-1-type" class="er entityLabel">Decimal</text><rect height="22" width="58.60394287109375" y="24" x="54.095550537109375" class="er attributeBoxOdd"/><text style="dominant-baseline: middle; font-size: 10.2px;" transform="translate(59.095550537109375,35)" y="0" x="0" id="text-entity-Paying-53a10f37-0537-42bd-8b74-677aff74b8e4-attr-1-name" class="er entityLabel">cost</text><rect height="22" width="47.21253967285156" y="24" x="112.69949340820312" class="er attributeBoxOdd"/><text style="dominant-baseline: middle; font-size: 10.2px;" transform="translate(117.69949340820312,35)" y="0" x="0" id="text-entity-Paying-53a10f37-0537-42bd-8b74-677aff74b8e4-attr-1-comment" class="er entityLabel"/><rect height="22" width="54.095550537109375" y="46" x="0" class="er attributeBoxEven"/><text style="dominant-baseline: middle; font-size: 10.2px;" transform="translate(5,57)" y="0" x="0" id="text-entity-Paying-53a10f37-0537-42bd-8b74-677aff74b8e4-attr-2-type" class="er entityLabel">Boolean</text><rect height="22" width="58.60394287109375" y="46" x="54.095550537109375" class="er attributeBoxEven"/><text style="dominant-baseline: middle; font-size: 10.2px;" transform="translate(59.095550537109375,57)" y="0" x="0" id="text-entity-Paying-53a10f37-0537-42bd-8b74-677aff74b8e4-attr-2-name" class="er entityLabel">paid</text><rect height="22" width="47.21253967285156" y="46" x="112.69949340820312" class="er attributeBoxEven"/><text style="dominant-baseline: middle; font-size: 10.2px;" transform="translate(117.69949340820312,57)" y="0" x="0" id="text-entity-Paying-53a10f37-0537-42bd-8b74-677aff74b8e4-attr-2-comment" class="er entityLabel"/><rect height="22" width="54.095550537109375" y="68" x="0" class="er attributeBoxOdd"/><text style="dominant-baseline: middle; font-size: 10.2px;" transform="translate(5,79)" y="0" x="0" id="text-entity-Paying-53a10f37-0537-42bd-8b74-677aff74b8e4-attr-3-type" class="er entityLabel">DateTime</text><rect height="22" width="58.60394287109375" y="68" x="54.095550537109375" class="er attributeBoxOdd"/><text style="dominant-baseline: middle; font-size: 10.2px;" transform="translate(59.095550537109375,79)" y="0" x="0" id="text-entity-Paying-53a10f37-0537-42bd-8b74-677aff74b8e4-attr-3-name" class="er entityLabel">paidAt</text><rect height="22" width="47.21253967285156" y="68" x="112.69949340820312" class="er attributeBoxOdd"/><text style="dominant-baseline: middle; font-size: 10.2px;" transform="translate(117.69949340820312,79)" y="0" x="0" id="text-entity-Paying-53a10f37-0537-42bd-8b74-677aff74b8e4-attr-3-comment" class="er entityLabel">nullable</text><rect height="22" width="54.095550537109375" y="90" x="0" class="er attributeBoxEven"/><text style="dominant-baseline: middle; font-size: 10.2px;" transform="translate(5,101)" y="0" x="0" id="text-entity-Paying-53a10f37-0537-42bd-8b74-677aff74b8e4-attr-4-type" class="er entityLabel">DateTime</text><rect height="22" width="58.60394287109375" y="90" x="54.095550537109375" class="er attributeBoxEven"/><text style="dominant-baseline: middle; font-size: 10.2px;" transform="translate(59.095550537109375,101)" y="0" x="0" id="text-entity-Paying-53a10f37-0537-42bd-8b74-677aff74b8e4-attr-4-name" class="er entityLabel">createdAt</text><rect height="22" width="47.21253967285156" y="90" x="112.69949340820312" class="er attributeBoxEven"/><text style="dominant-baseline: middle; font-size: 10.2px;" transform="translate(117.69949340820312,101)" y="0" x="0" id="text-entity-Paying-53a10f37-0537-42bd-8b74-677aff74b8e4-attr-4-comment" class="er entityLabel"/><rect height="22" width="54.095550537109375" y="112" x="0" class="er attributeBoxOdd"/><text style="dominant-baseline: middle; font-size: 10.2px;" transform="translate(5,123)" y="0" x="0" id="text-entity-Paying-53a10f37-0537-42bd-8b74-677aff74b8e4-attr-5-type" class="er entityLabel">DateTime</text><rect height="22" width="58.60394287109375" y="112" x="54.095550537109375" class="er attributeBoxOdd"/><text style="dominant-baseline: middle; font-size: 10.2px;" transform="translate(59.095550537109375,123)" y="0" x="0" id="text-entity-Paying-53a10f37-0537-42bd-8b74-677aff74b8e4-attr-5-name" class="er entityLabel">updatedAt</text><rect height="22" width="47.21253967285156" y="112" x="112.69949340820312" class="er attributeBoxOdd"/><text style="dominant-baseline: middle; font-size: 10.2px;" transform="translate(117.69949340820312,123)" y="0" x="0" id="text-entity-Paying-53a10f37-0537-42bd-8b74-677aff74b8e4-attr-5-comment" class="er entityLabel"/></g><rect height="14" width="40.65234375" y="718.0572509765625" x="196.3792266845703" class="er relationshipLabelBox"/><text style="text-anchor: middle; dominant-baseline: middle; font-size: 12px;" y="725.0572509765625" x="216.7053985595703" id="rel1" class="er relationshipLabel">creator</text><rect height="14" width="30.68359375" y="416.45294189453125" x="64.41690063476562" class="er relationshipLabelBox"/><text style="text-anchor: middle; dominant-baseline: middle; font-size: 12px;" y="423.45294189453125" x="79.75869750976562" id="rel2" class="er relationshipLabel">group</text><rect height="14" width="45.697265625" y="506.94158935546875" x="319.117431640625" class="er relationshipLabelBox"/><text style="text-anchor: middle; dominant-baseline: middle; font-size: 12px;" y="513.9415893554688" x="341.966064453125" id="rel3" class="er relationshipLabel">member</text><rect height="14" width="30.68359375" y="438.23040771484375" x="221.57620239257812" class="er relationshipLabelBox"/><text style="text-anchor: middle; dominant-baseline: middle; font-size: 12px;" y="445.23040771484375" x="236.91799926757812" id="rel4" class="er relationshipLabel">group</text><rect height="14" width="40.65234375" y="555.0946655273438" x="497.68255615234375" class="er relationshipLabelBox"/><text style="text-anchor: middle; dominant-baseline: middle; font-size: 12px;" y="562.0946655273438" x="518.0087280273438" id="rel5" class="er relationshipLabel">creator</text><rect height="14" width="44.201171875" y="192.4805450439453" x="404.72918701171875" class="er relationshipLabelBox"/><text style="text-anchor: middle; dominant-baseline: middle; font-size: 12px;" y="199.4805450439453" x="426.82977294921875" id="rel6" class="er relationshipLabel">expense</text><rect height="14" width="34.921875" y="453.81365966796875" x="646.1986083984375" class="er relationshipLabelBox"/><text style="text-anchor: middle; dominant-baseline: middle; font-size: 12px;" y="460.81365966796875" x="663.6595458984375" id="rel7" class="er relationshipLabel">paying</text></svg>